<svg width="334" height="64" viewBox="0 0 334 64" fill="none" xmlns="http://www.w3.org/2000/svg">
<path d="M18.224 63.6793C15.1793 63.6793 12.5725 63.2553 10.4037 62.4072C8.23488 61.5591 6.5318 60.3983 5.29445 58.9246C4.0571 57.4509 3.31331 55.7826 3.06306 53.9196L12.7185 53.3774C12.8993 54.0308 13.2329 54.6008 13.7195 55.0874C14.22 55.574 14.8665 55.9494 15.659 56.2135C16.4653 56.4777 17.4107 56.6098 18.4951 56.6098C20.2052 56.6098 21.6163 56.1927 22.7285 55.3585C23.8546 54.5383 24.4177 53.0993 24.4177 51.0417V45.4111H24.0632C23.66 46.3982 23.0483 47.281 22.228 48.0596C21.4078 48.8381 20.3859 49.4498 19.1625 49.8947C17.9529 50.3396 16.5626 50.5621 14.9916 50.5621C12.656 50.5621 10.5149 50.0199 8.56855 48.9354C6.63607 47.8371 5.08591 46.141 3.91808 43.847C2.76415 41.5392 2.18718 38.5709 2.18718 34.9423C2.18718 31.2025 2.785 28.123 3.98064 25.7039C5.17628 23.2709 6.74034 21.4705 8.67282 20.3027C10.6192 19.1349 12.7116 18.551 14.9499 18.551C16.6322 18.551 18.0711 18.8429 19.2667 19.4268C20.4763 19.9968 21.4703 20.7337 22.2489 21.6374C23.0274 22.541 23.6183 23.4795 24.0215 24.4527H24.3134V18.968H34.4694V51.1251C34.4694 53.8362 33.7882 56.1232 32.4257 57.9861C31.0632 59.8491 29.1585 61.2602 26.7117 62.2195C24.2648 63.1927 21.4356 63.6793 18.224 63.6793ZM18.5368 43.138C19.7742 43.138 20.8308 42.8113 21.7067 42.1578C22.5825 41.5044 23.2568 40.566 23.7295 39.3425C24.2022 38.1191 24.4386 36.6523 24.4386 34.9423C24.4386 33.2045 24.2022 31.7099 23.7295 30.4587C23.2707 29.1935 22.5964 28.2203 21.7067 27.5391C20.8308 26.8579 19.7742 26.5172 18.5368 26.5172C17.2717 26.5172 16.2012 26.8648 15.3253 27.5599C14.4494 28.2551 13.7821 29.2352 13.3233 30.5004C12.8784 31.7516 12.656 33.2323 12.656 34.9423C12.656 36.6523 12.8854 38.1191 13.3441 39.3425C13.8029 40.566 14.4633 41.5044 15.3253 42.1578C16.2012 42.8113 17.2717 43.138 18.5368 43.138ZM54.455 51.6048C51.0905 51.6048 48.1987 50.9166 45.7796 49.5402C43.3745 48.1499 41.5184 46.2174 40.2116 43.7428C38.9186 41.2542 38.2722 38.3693 38.2722 35.0883C38.2722 31.7933 38.9186 28.9085 40.2116 26.4338C41.5184 23.9452 43.3745 22.0127 45.7796 20.6364C48.1987 19.2461 51.0905 18.551 54.455 18.551C57.8194 18.551 60.7043 19.2461 63.1094 20.6364C65.5285 22.0127 67.3845 23.9452 68.6775 26.4338C69.9844 28.9085 70.6378 31.7933 70.6378 35.0883C70.6378 38.3693 69.9844 41.2542 68.6775 43.7428C67.3845 46.2174 65.5285 48.1499 63.1094 49.5402C60.7043 50.9166 57.8194 51.6048 54.455 51.6048ZM54.5175 43.9096C55.741 43.9096 56.7767 43.5342 57.6248 42.7835C58.4729 42.0327 59.1193 40.99 59.5642 39.6553C60.023 38.3207 60.2524 36.7775 60.2524 35.0257C60.2524 33.2462 60.023 31.6891 59.5642 30.3544C59.1193 29.0197 58.4729 27.977 57.6248 27.2263C56.7767 26.4755 55.741 26.1002 54.5175 26.1002C53.2524 26.1002 52.1819 26.4755 51.306 27.2263C50.444 27.977 49.7836 29.0197 49.3248 30.3544C48.88 31.6891 48.6575 33.2462 48.6575 35.0257C48.6575 36.7775 48.88 38.3207 49.3248 39.6553C49.7836 40.99 50.444 42.0327 51.306 42.7835C52.1819 43.5342 53.2524 43.9096 54.5175 43.9096ZM79.6906 51L71.3489 18.968H81.5883L85.9051 39.4885H86.1762L90.8058 18.968H100.795L105.55 39.3425H105.821L110.012 18.968H120.252L111.889 51H100.983L95.9777 32.3355H95.6231L90.6181 51H79.6906ZM122.876 51V18.968H133.074V51H122.876ZM127.986 15.2351C126.554 15.2351 125.323 14.7624 124.294 13.8171C123.266 12.8578 122.751 11.7038 122.751 10.3553C122.751 9.0206 123.266 7.88058 124.294 6.93519C125.323 5.9759 126.554 5.49625 127.986 5.49625C129.432 5.49625 130.662 5.9759 131.677 6.93519C132.706 7.88058 133.22 9.0206 133.22 10.3553C133.22 11.7038 132.706 12.8578 131.677 13.8171C130.662 14.7624 129.432 15.2351 127.986 15.2351ZM156.177 18.968V26.4755H135.97V18.968H156.177ZM140.203 11.2937H150.401V40.9274C150.401 41.5531 150.498 42.0605 150.693 42.4498C150.901 42.8252 151.2 43.0963 151.589 43.2631C151.979 43.416 152.444 43.4925 152.987 43.4925C153.376 43.4925 153.786 43.4578 154.217 43.3882C154.662 43.3048 154.996 43.2353 155.218 43.1797L156.761 50.5412C156.275 50.6802 155.586 50.854 154.697 51.0626C153.821 51.2711 152.771 51.4032 151.548 51.4588C149.156 51.57 147.106 51.292 145.396 50.6246C143.7 49.9434 142.4 48.8868 141.496 47.4548C140.606 46.0228 140.175 44.2224 140.203 42.0536V11.2937ZM170.798 32.7318V51H160.6V8.29071H170.464V24.8489H170.819C171.542 22.8747 172.724 21.3315 174.364 20.2193C176.019 19.1071 178.041 18.551 180.433 18.551C182.685 18.551 184.645 19.0514 186.314 20.0524C187.982 21.0395 189.275 22.4368 190.193 24.2441C191.124 26.0515 191.583 28.1647 191.569 30.5838V51H181.371V32.5858C181.385 30.8062 180.94 29.416 180.037 28.415C179.133 27.414 177.861 26.9135 176.22 26.9135C175.15 26.9135 174.204 27.1498 173.384 27.6225C172.578 28.0813 171.945 28.7417 171.486 29.6036C171.041 30.4656 170.812 31.5083 170.798 32.7318ZM214.672 18.968V26.4755H194.068V18.968H214.672ZM198.364 51V17.3414C198.364 14.8667 198.83 12.8161 199.761 11.1894C200.693 9.54891 201.986 8.32547 203.64 7.51911C205.295 6.69884 207.206 6.28871 209.375 6.28871C210.793 6.28871 212.128 6.39993 213.379 6.62238C214.644 6.83092 215.583 7.01861 216.195 7.18544L214.568 14.6512C214.193 14.5261 213.734 14.4218 213.192 14.3384C212.663 14.255 212.163 14.2133 211.69 14.2133C210.494 14.2133 209.674 14.4774 209.229 15.0057C208.784 15.5341 208.562 16.257 208.562 17.1746V51H198.364ZM228.308 8.29071V51H218.11V8.29071H228.308ZM248.283 51.6048C244.918 51.6048 242.027 50.9166 239.607 49.5402C237.202 48.1499 235.346 46.2174 234.039 43.7428C232.746 41.2542 232.1 38.3693 232.1 35.0883C232.1 31.7933 232.746 28.9085 234.039 26.4338C235.346 23.9452 237.202 22.0127 239.607 20.6364C242.027 19.2461 244.918 18.551 248.283 18.551C251.647 18.551 254.532 19.2461 256.937 20.6364C259.356 22.0127 261.212 23.9452 262.505 26.4338C263.812 28.9085 264.466 31.7933 264.466 35.0883C264.466 38.3693 263.812 41.2542 262.505 43.7428C261.212 46.2174 259.356 48.1499 256.937 49.5402C254.532 50.9166 251.647 51.6048 248.283 51.6048ZM248.345 43.9096C249.569 43.9096 250.605 43.5342 251.453 42.7835C252.301 42.0327 252.947 40.99 253.392 39.6553C253.851 38.3207 254.08 36.7775 254.08 35.0257C254.08 33.2462 253.851 31.6891 253.392 30.3544C252.947 29.0197 252.301 27.977 251.453 27.2263C250.605 26.4755 249.569 26.1002 248.345 26.1002C247.08 26.1002 246.01 26.4755 245.134 27.2263C244.272 27.977 243.611 29.0197 243.153 30.3544C242.708 31.6891 242.485 33.2462 242.485 35.0257C242.485 36.7775 242.708 38.3207 243.153 39.6553C243.611 40.99 244.272 42.0327 245.134 42.7835C246.01 43.5342 247.08 43.9096 248.345 43.9096ZM273.518 51L265.177 18.968H275.416L279.733 39.4885H280.004L284.634 18.968H294.623L299.378 39.3425H299.649L303.84 18.968H314.08L305.717 51H294.81L289.805 32.3355H289.451L284.446 51H273.518Z" fill="#0A0A0A"/>
<circle cx="326.659" cy="43.4322" r="7.34066" fill="#00C98C"/>
</svg>
